<svg xmlns="http://www.w3.org/2000/svg" fill="none" viewBox="0 0 38 41">
  <path fill="#7121DB" d="M36.9813 17.4863H25.8482C25.2335 17.4863 24.7554 18.1688 24.9603 18.7148L27.6241 25.608C27.7607 25.881 27.4875 26.2223 27.1459 26.2223L23.7309 26.0175C23.5943 26.0175 23.4577 26.0858 23.3211 26.2223L20.7256 29.976C20.589 30.1808 20.3158 30.249 20.0426 30.1125L16.0811 27.4508C15.9445 27.3143 15.7396 27.3143 15.5347 27.4508L10.0706 31.1363C9.72913 31.4093 9.25102 31.068 9.38762 30.6585L10.9586 25.1985C11.0269 24.9938 10.8903 24.7208 10.6853 24.6525L7.8167 23.4923C7.54349 23.3558 7.40689 23.0145 7.61179 22.8098L10.1389 19.6703C10.2755 19.5338 10.2755 19.2608 10.1389 19.1243L8.0216 16.053C7.8167 15.78 8.0216 15.3705 8.36311 15.3705L11.7099 15.0975C11.9831 15.0975 12.1197 14.8928 12.1197 14.6198L11.8465 9.97878C11.8465 9.63754 12.188 9.43279 12.4612 9.50103L16.5593 11.2073C16.7642 11.2755 16.9691 11.2073 17.1057 11.0708L19.9743 7.93129C20.1792 7.65829 20.589 7.72654 20.7256 8.06779L22.4332 12.4358C22.6381 12.9818 23.3211 13.1865 23.7992 12.8453L30.4927 7.86304C31.244 7.31704 30.7659 6.08854 29.8097 6.22504L25.5067 6.77104C25.3018 6.77104 25.0969 6.70279 25.0286 6.49804L22.7064 0.560286C22.4332 -0.0539641 21.6818 -0.190464 21.2037 0.287286L16.1494 5.74729C16.0128 5.88379 15.8079 5.95204 15.603 5.88379L8.97782 3.08554C8.36311 2.81254 7.7484 3.22204 7.68009 3.90454L7.40689 10.7295C7.40689 11.0025 7.20199 11.139 6.99708 11.139L0.918272 11.5485C0.23526 11.6168 -0.174548 12.3675 0.23526 12.9818L4.26503 18.9195C4.40164 19.056 4.40164 19.329 4.26503 19.4655L0.166959 24.1748C-0.174548 24.516 0.0303561 25.2668 0.576766 25.4715L5.28955 27.519C5.49445 27.5873 5.63106 27.8603 5.56276 28.065L2.5575 39.7358C2.3526 40.5548 3.30882 41.169 3.99183 40.6913L15.2615 32.6378C15.3981 32.5013 15.603 32.5013 15.8079 32.6378L20.9305 36.255C21.3403 36.528 21.9551 36.4598 22.2283 35.982L25.4384 31.068C25.5067 30.9315 25.7116 30.8633 25.8482 30.8633L33.498 31.8188C34.1127 31.887 34.7274 31.4093 34.5225 30.795L31.3123 22.5368C31.244 22.332 31.3123 22.059 31.5855 21.9225L37.3911 19.1925C38.2107 18.783 37.9375 17.4863 36.9813 17.4863Z"/>
</svg>
