<svg xmlns="http://www.w3.org/2000/svg" viewBox="0 0 1254 1254" role="img" aria-labelledby="title desc">
  <title id="title">Brian B mark</title>
  <desc id="desc">The orange overlapping-loop letter B from the Brian wordmark.</desc>
  <path d="M 304.0 139.5 L 721.0 140.1 L 753.0 142.5 L 788.0 150.5 L 807.0 157.5 L 826.0 166.5 L 855.0 185.5 L 867.0 195.5 L 888.5 218.0 L 909.5 249.0 L 918.5 267.0 L 925.5 285.0 L 931.5 307.0 L 935.5 329.0 L 937.0 368.0 L 934.5 394.0 L 931.5 409.0 L 920.5 442.0 L 904.5 472.0 L 879.5 504.0 L 898.0 517.5 L 923.5 541.0 L 941.5 562.0 L 959.5 590.0 L 971.5 615.0 L 978.5 635.0 L 984.5 661.0 L 988.5 695.0 L 988.5 718.0 L 984.5 752.0 L 978.5 776.0 L 969.5 801.0 L 957.5 825.0 L 936.5 856.0 L 914.0 880.1 L 896.0 895.5 L 871.0 912.5 L 836.0 929.5 L 803.0 939.5 L 771.0 944.5 L 303.0 945.0 L 302.8 747.0 L 463.5 542.0 L 483.5 518.0 L 501.0 501.5 L 517.0 490.5 L 534.0 482.5 L 551.0 477.5 L 563.0 476.4 L 728.0 476.3 L 749.0 473.3 L 768.0 467.4 L 782.0 460.3 L 795.0 451.3 L 806.2 441.0 L 815.4 430.0 L 825.3 414.0 L 831.1 400.0 L 834.4 389.0 L 837.5 368.0 L 837.4 350.0 L 833.4 327.0 L 825.4 306.0 L 816.3 291.0 L 800.0 273.0 L 784.0 260.8 L 768.0 252.5 L 754.0 247.6 L 734.0 243.5 L 722.0 242.6 L 406.0 242.6 L 405.5 578.0 L 303.0 708.5 L 302.3 141.0 Z M 559.0 574.9 L 541.0 576.6 L 517.0 582.8 L 501.0 589.5 L 483.0 599.6 L 466.0 612.6 L 446.6 632.0 L 405.7 680.0 L 405.5 834.0 L 405.6 838.0 L 407.0 839.3 L 761.0 839.4 L 771.0 838.4 L 797.0 832.5 L 815.0 825.4 L 822.0 821.4 L 833.0 814.4 L 843.0 806.1 L 860.3 787.0 L 873.1 766.0 L 881.4 744.0 L 886.4 716.0 L 885.4 687.0 L 878.3 659.0 L 866.4 635.0 L 859.4 625.0 L 847.0 611.0 L 831.0 597.7 L 819.0 590.5 L 799.0 581.6 L 780.0 576.7 L 760.0 574.5 Z" fill="#f55401" fill-rule="evenodd"/>
</svg>
